<svg width="37" height="37" viewBox="0 0 37 37" fill="none" xmlns="http://www.w3.org/2000/svg">
<circle r="18.5" transform="matrix(-1 0 0 1 18.5 18.5)" fill="#00D2CF" fill-opacity="0.86"/>
<g clip-path="url(#clip0_95_155)">
<path d="M25.8719 18.1662L21.3721 13.1665C21.2761 13.0605 21.1421 13.0005 21.0001 13.0005H18.0003C17.8033 13.0005 17.6243 13.1165 17.5433 13.2965C17.4633 13.4775 17.4963 13.6885 17.6283 13.8344L21.8271 18.5002L17.6283 23.1649C17.4963 23.3119 17.4623 23.5229 17.5433 23.7029C17.6243 23.8839 17.8033 23.9999 18.0003 23.9999H21.0001C21.1421 23.9999 21.2761 23.9389 21.3721 23.8349L25.8719 18.8352C26.0429 18.6452 26.0429 18.3552 25.8719 18.1662Z" fill="white"/>
<path d="M19.3721 18.1662L14.8724 13.1665C14.7764 13.0605 14.6424 13.0005 14.5004 13.0005H11.5005C11.3035 13.0005 11.1246 13.1165 11.0436 13.2965C10.9636 13.4775 10.9966 13.6885 11.1286 13.8344L15.3273 18.5002L11.1286 23.1649C10.9966 23.3119 10.9626 23.5229 11.0436 23.7029C11.1246 23.8839 11.3035 23.9999 11.5005 23.9999H14.5004C14.6424 23.9999 14.7764 23.9389 14.8724 23.8349L19.3721 18.8352C19.5431 18.6452 19.5431 18.3552 19.3721 18.1662Z" fill="white"/>
</g>
<defs>
<clipPath id="clip0_95_155">
<rect width="15" height="15" fill="white" transform="translate(11 11)"/>
</clipPath>
</defs>
</svg>
