<svg width="30" height="29" viewBox="0 0 30 29" fill="none" xmlns="http://www.w3.org/2000/svg">
<g clip-path="url(#clip0_118_43)">
<path d="M11.9395 6.79185C12.6806 6.48772 12.9913 5.62212 12.6567 4.92029L11.4853 2.51066C11.1506 1.83246 10.3378 1.52809 9.62057 1.83246C7.58854 2.67466 5.84339 3.7742 4.45683 5.10768C2.75949 6.67487 1.61199 8.47625 0.990428 10.4648C0.368867 12.4769 0.0341797 15.2139 0.0341797 18.6996V25.8817C0.0341797 26.6537 0.679647 27.2854 1.46855 27.2854H10.8637C11.6526 27.2854 12.2981 26.6537 12.2981 25.8817V16.6877C12.2981 15.9155 11.6526 15.284 10.8637 15.284H6.36932C6.41714 12.921 6.99089 11.0262 8.04276 9.59895C8.90338 8.45309 10.1943 7.51731 11.9395 6.79185Z" fill="#00D2CF"/>
<path d="M28.8174 6.79178C29.5585 6.48766 29.8691 5.62206 29.5346 4.92023L28.3632 2.53423C28.0285 1.85579 27.2157 1.55166 26.4985 1.85579C24.4904 2.69799 22.7689 3.79753 21.3587 5.10762C19.6611 6.69844 18.4899 8.49981 17.8681 10.4883C17.2466 12.4532 16.936 15.1906 16.936 18.6998V25.8819C16.936 26.6539 17.5815 27.2856 18.3704 27.2856H27.7655C28.5545 27.2856 29.1999 26.6539 29.1999 25.8819V16.6879C29.1999 15.9156 28.5545 15.2842 27.7655 15.2842H23.2473C23.2951 12.9211 23.8691 11.0264 24.9207 9.59912C25.7813 8.45303 27.0723 7.51725 28.8174 6.79178Z" fill="#00D2CF"/>
</g>
<defs>
<clipPath id="clip0_118_43">
<rect width="29.6344" height="29" fill="white" transform="translate(0.0341797)"/>
</clipPath>
</defs>
</svg>
