<svg width="31" height="29" viewBox="0 0 31 29" fill="none" xmlns="http://www.w3.org/2000/svg">
<g clip-path="url(#clip0_104_434)">
<path d="M12.6704 6.79185C13.4164 6.48772 13.7292 5.62212 13.3923 4.92029L12.2132 2.51066C11.8763 1.83246 11.0581 1.52809 10.3362 1.83246C8.29073 2.67466 6.53406 3.7742 5.13835 5.10768C3.42981 6.67487 2.27474 8.47625 1.64908 10.4648C1.02342 12.4769 0.686523 15.2139 0.686523 18.6996V25.8817C0.686523 26.6537 1.33625 27.2854 2.13036 27.2854H11.5875C12.3816 27.2854 13.0313 26.6537 13.0313 25.8817V16.6877C13.0313 15.9155 12.3816 15.284 11.5875 15.284H7.06347C7.1116 12.921 7.68913 11.0262 8.74795 9.59895C9.61425 8.45309 10.9137 7.51731 12.6704 6.79185Z" fill="#D95843"/>
<path d="M29.66 6.79178C30.406 6.48766 30.7185 5.62206 30.3819 4.92023L29.2028 2.53423C28.8659 1.85579 28.0477 1.55166 27.3258 1.85579C25.3044 2.69799 23.5716 3.79753 22.152 5.10762C20.4432 6.69844 19.2644 8.49981 18.6384 10.4883C18.0128 12.4532 17.7002 15.1906 17.7002 18.6998V25.8819C17.7002 26.6539 18.3499 27.2856 19.144 27.2856H28.6012C29.3953 27.2856 30.045 26.6539 30.045 25.8819V16.6879C30.045 15.9156 29.3953 15.2842 28.6012 15.2842H24.0531C24.1012 12.9211 24.679 11.0264 25.7376 9.59912C26.6039 8.45303 27.9033 7.51725 29.66 6.79178Z" fill="#D95843"/>
</g>
<defs>
<clipPath id="clip0_104_434">
<rect width="29.8299" height="29" fill="white" transform="translate(0.686523)"/>
</clipPath>
</defs>
</svg>
