<svg width="25" height="25" viewBox="0 0 25 25" fill="none" xmlns="http://www.w3.org/2000/svg">
<path d="M24.7797 4.9668L17.1978 12.5L24.7797 20.0331C24.9168 19.7466 25 19.4299 25 19.0917V5.90815C25 5.56992 24.9168 5.25327 24.7797 4.9668Z" fill="#00D2CF"/>
<path d="M22.8027 3.71094H2.19722C1.85898 3.71094 1.54233 3.79409 1.25586 3.93115L10.9464 13.5729C11.8033 14.4297 13.1966 14.4297 14.0535 13.5729L23.744 3.93115C23.4576 3.79409 23.1409 3.71094 22.8027 3.71094Z" fill="#00D2CF"/>
<path d="M0.220215 4.9668C0.0831543 5.25327 0 5.56992 0 5.90815V19.0917C0 19.43 0.0831543 19.7467 0.220215 20.0331L7.8022 12.5L0.220215 4.9668Z" fill="#00D2CF"/>
<path d="M16.1621 13.5356L15.0892 14.6085C13.6615 16.0362 11.3384 16.0362 9.91069 14.6085L8.83784 13.5356L1.25586 21.0688C1.54233 21.2059 1.85898 21.289 2.19722 21.289H22.8027C23.1409 21.289 23.4576 21.2059 23.744 21.0688L16.1621 13.5356Z" fill="#00D2CF"/>
</svg>
