<svg width="77" height="83" viewBox="0 0 77 83" fill="none" xmlns="http://www.w3.org/2000/svg">
<path d="M72.1875 12.969C44.3171 12.969 40.8264 4.48611 40.8158 4.48611C40.5244 3.36655 39.5962 2.5332 38.5176 2.5332C37.4402 2.5332 36.5108 3.24496 36.2195 4.36453C36.1877 4.45065 32.7393 12.969 4.8125 12.969C3.48366 12.969 2.40625 14.1291 2.40625 15.5627C2.40625 18.1388 2.81512 78.6917 38.3931 80.404C38.4283 80.4065 38.4648 80.4065 38.5 80.4065C38.5352 80.4065 38.5717 80.4065 38.6069 80.404C74.1849 78.6917 74.5938 18.1388 74.5938 15.5627C74.5938 14.1291 73.5163 12.969 72.1875 12.969Z" fill="url(#paint0_linear_72_197)"/>
<path d="M38.5 18.1562C26.5592 18.1562 16.8438 28.6275 16.8438 41.5C16.8438 54.3725 26.5592 64.8438 38.5 64.8438C50.4408 64.8438 60.1562 54.3725 60.1562 41.5C60.1562 28.6275 50.4408 18.1562 38.5 18.1562Z" fill="url(#paint1_linear_72_197)"/>
<path d="M36.0938 51.875C35.4781 51.875 34.8624 51.6217 34.3925 51.1151L27.1737 43.3339C26.2338 42.3207 26.2338 40.6793 27.1737 39.6661C28.1136 38.653 29.6364 38.653 30.5763 39.6661L36.0938 45.6135L46.4237 34.4786C47.3636 33.4655 48.8864 33.4655 49.8263 34.4786C50.7662 35.4918 50.7662 37.1332 49.8263 38.1464L37.795 51.1151C37.3251 51.6217 36.7094 51.875 36.0938 51.875Z" fill="url(#paint2_linear_72_197)"/>
<defs>
<linearGradient id="paint0_linear_72_197" x1="2.40625" y1="41.4691" x2="74.5938" y2="41.4691" gradientUnits="userSpaceOnUse">
<stop stop-color="#00D2CF" stop-opacity="0.86"/>
<stop offset="1" stop-color="#0C8E8D" stop-opacity="0.86"/>
</linearGradient>
<linearGradient id="paint1_linear_72_197" x1="16.8438" y1="41.5" x2="60.1562" y2="41.5" gradientUnits="userSpaceOnUse">
<stop stop-color="#ADFAF9" stop-opacity="0.86"/>
<stop offset="1" stop-color="#2CD1CF" stop-opacity="0.86"/>
</linearGradient>
<linearGradient id="paint2_linear_72_197" x1="26.4688" y1="42.7969" x2="50.5313" y2="42.7969" gradientUnits="userSpaceOnUse">
<stop stop-color="#00D2CF" stop-opacity="0.86"/>
<stop offset="1" stop-color="#0C8E8D" stop-opacity="0.86"/>
</linearGradient>
</defs>
</svg>
