<svg width="90" height="88" viewBox="0 0 90 88" fill="none" xmlns="http://www.w3.org/2000/svg">
<g clip-path="url(#clip0_103_190)">
<path d="M33.75 40.23H30.9375V37.48H33.75V40.23ZM36.5625 42.98H33.75C33.75 43.7376 33.12 44.355 32.3438 44.355C31.5675 44.355 30.9375 43.7376 30.9375 42.98H28.125C28.125 45.2542 30.0178 47.105 32.3438 47.105C34.6697 47.105 36.5625 45.2542 36.5625 42.98ZM40.7812 38.855C41.5575 38.855 42.1875 38.239 42.1875 37.48C42.1875 36.721 41.5575 36.105 40.7812 36.105C40.005 36.105 39.375 36.721 39.375 37.48C39.375 38.239 40.005 38.855 40.7812 38.855ZM23.9062 36.105C23.13 36.105 22.5 36.721 22.5 37.48C22.5 38.239 23.13 38.855 23.9062 38.855C24.6825 38.855 25.3125 38.239 25.3125 37.48C25.3125 36.721 24.6825 36.105 23.9062 36.105ZM80.827 67.73H88.5938V96.605H1.40625V77.355H4.21875V68.9152C4.21875 60.6804 11.07 53.98 19.492 53.98H22.808L23.753 50.2826C20.8603 48.5584 18.6553 45.9926 17.5866 42.98H16.1719C13.4578 42.98 11.25 40.8212 11.25 38.1675C11.25 35.5137 13.4578 33.355 16.1719 33.355H11.25V25.105H14.1455C14.9583 18.2506 21.7617 11.355 32.3438 11.355C42.9258 11.355 49.7292 18.2506 50.542 25.105H53.4375V33.355H48.5156C51.2297 33.355 53.4375 35.5137 53.4375 38.1675C53.4375 40.8212 51.2297 42.98 48.5156 42.98H47.0995C46.0308 45.9926 43.8272 48.5584 40.9331 50.2826L41.8781 53.98H46.6003C54.2475 53.98 60.4688 60.063 60.4688 67.5402V67.73H71.048L64.9434 54.9384C64.5497 54.112 64.6116 53.1619 65.1108 52.3946C65.5847 51.6645 66.3848 51.23 67.2497 51.23H74.5312V45.73H70.3125V31.98C70.3125 29.769 71.8102 26.48 75.9375 26.48C80.0648 26.48 81.5625 29.769 81.5625 31.98V45.73H77.3438V51.23H84.6253C85.4902 51.23 86.2917 51.6645 86.7642 52.3946C87.2634 53.1619 87.3253 54.1134 86.9316 54.9397L80.827 67.73ZM73.125 31.98H78.75C78.7387 31.3434 78.5053 29.23 75.9375 29.23C73.2614 29.23 73.125 31.5207 73.125 31.98ZM73.125 42.98H78.75V34.73H73.125V42.98ZM85.7812 80.105H71.7188V85.605H85.7812V80.105ZM12.6562 88.355V93.855H26.7188V88.355H12.6562ZM21.0938 80.105V85.605H35.1562V80.105H21.0938ZM30.9375 65.7637V77.355H33.75V65.7637C33.75 64.0725 34.8595 62.5902 36.578 61.9894C38.25 61.405 39.375 59.8444 39.375 58.105V57.9166C37.8 58.7017 35.4586 59.48 32.3438 59.48C29.2289 59.48 26.8875 58.7017 25.3125 57.9166V58.105C25.3125 59.8444 26.4375 61.405 28.1095 61.9907C29.828 62.5916 30.9375 64.0725 30.9375 65.7637ZM46.4062 70.48V77.355H60.4688V70.48H46.4062ZM68.9062 85.605V80.105H54.8438V85.605H68.9062ZM37.9688 80.105V85.605H52.0312V80.105H37.9688ZM29.5312 93.855H43.5938V88.355H29.5312V93.855ZM46.4062 93.855H60.4688V88.355H46.4062V93.855ZM63.2812 93.855H77.3438V88.355H63.2812V93.855ZM67.5352 53.98L75.9361 71.4755L84.2864 53.98H77.3438V59.48H74.5312V53.98H67.5352ZM72.36 70.48H63.2812V77.355H77.3438V74.176C76.9345 74.4482 76.4536 74.605 75.9375 74.605C74.9447 74.605 74.0616 74.0454 73.6298 73.1434L72.36 70.48ZM52.0312 58.1352V67.73H57.6562V67.5402C57.6562 63.5087 55.3852 59.9929 52.0312 58.1352ZM42.1875 58.105C42.1875 61.0021 40.3144 63.605 37.5258 64.5799C36.9408 64.7847 36.5625 65.2495 36.5625 65.7637V77.355H43.5938V67.73H49.2188V57.049C48.3778 56.8482 47.5045 56.73 46.6017 56.73H42.1875V58.105ZM48.5156 36.105H47.8125V38.855C47.8125 39.3197 47.7844 39.7776 47.7337 40.23H48.5156C49.6786 40.23 50.625 39.3046 50.625 38.1675C50.625 37.0304 49.6786 36.105 48.5156 36.105ZM46.8745 22.355H45C44.2238 22.355 43.5938 22.9724 43.5938 23.73V25.105H47.6972C47.5594 24.1782 47.2809 23.2542 46.8745 22.355ZM36.5625 14.5711V25.105H40.7812V23.73C40.7812 21.4557 42.6741 19.605 45 19.605H45.1434C43.2113 17.2702 40.2848 15.3947 36.5625 14.5711ZM32.3438 14.105C31.8628 14.105 31.3988 14.1325 30.9375 14.1641V25.105H33.75V14.1641C33.2887 14.1325 32.8247 14.105 32.3438 14.105ZM19.5441 19.605H19.6875C22.0134 19.605 23.9062 21.4557 23.9062 23.73V25.105H28.125V14.5711C24.4027 15.3947 21.4762 17.2702 19.5441 19.605ZM16.9903 25.105H21.0938V23.73C21.0938 22.9724 20.4638 22.355 19.6875 22.355H17.813C17.4066 23.2542 17.1281 24.1782 16.9903 25.105ZM50.625 30.605V27.855H14.0625V30.605H50.625ZM16.9537 40.23C16.9031 39.7776 16.875 39.3197 16.875 38.855V36.105H16.1719C15.0089 36.105 14.0625 37.0304 14.0625 38.1675C14.0625 39.3046 15.0089 40.23 16.1719 40.23H16.9537ZM32.3438 49.855C39.323 49.855 45 44.9201 45 38.855V33.355H19.6875V38.855C19.6875 44.9201 25.3645 49.855 32.3438 49.855ZM26.3348 51.5242L25.4883 54.8339C26.4839 55.52 28.7437 56.73 32.3438 56.73C35.9437 56.73 38.2036 55.52 39.1992 54.8352L38.3527 51.5256C36.5048 52.22 34.4742 52.605 32.3438 52.605C30.2133 52.605 28.1827 52.22 26.3348 51.5242ZM19.492 56.73C18.083 56.73 16.733 56.9706 15.4688 57.3941V77.355H28.125V65.7637C28.125 65.2481 27.7467 64.7847 27.1617 64.5799C24.3731 63.605 22.5 61.0021 22.5 58.105V56.73H19.492ZM7.03125 77.355H12.6562V58.7389C9.27281 60.9196 7.03125 64.6637 7.03125 68.9152V77.355ZM4.21875 80.105V85.605H18.2812V80.105H4.21875ZM4.21875 93.855H9.84375V88.355H4.21875V93.855ZM85.7812 93.855V88.355H80.1562V93.855H85.7812ZM85.7812 70.48H80.1562V77.355H85.7812V70.48ZM25.3125 66.355H18.2812V69.105H25.3125V66.355ZM25.3125 74.605V71.855H18.2812V74.605H25.3125Z" fill="url(#paint0_linear_103_190)"/>
</g>
<defs>
<linearGradient id="paint0_linear_103_190" x1="45" y1="96.605" x2="45" y2="11.355" gradientUnits="userSpaceOnUse">
<stop stop-color="#35D5D3"/>
<stop offset="1" stop-color="#078785"/>
</linearGradient>
<clipPath id="clip0_103_190">
<rect width="90" height="88" fill="white"/>
</clipPath>
</defs>
</svg>
