<svg width="77" height="77" viewBox="0 0 77 77" fill="none" xmlns="http://www.w3.org/2000/svg">
<path d="M76.2222 34.5298L39.9891 2.94777C39.1316 2.22574 37.8682 2.22574 37.0106 2.94777L0.777782 34.5298C-0.169529 35.387 -0.259763 36.7857 0.552496 37.733C1.35694 38.6183 2.7112 38.7935 3.75612 37.9587L9.17379 33.3116V43.0118L18.1972 45.2677L9.17379 47.5236V56.547L18.1972 58.8029L9.17379 61.0587V72.338C9.17379 73.5839 10.1838 74.5939 11.4296 74.5939H27.2207C29.7125 74.5939 31.7324 72.5738 31.7324 70.0822H45.2675C45.2675 72.5738 47.2874 74.5939 49.7793 74.5939H65.5703C66.8161 74.5939 67.8261 73.5839 67.8261 72.338V61.0587L58.8027 58.8029L67.8261 56.547V47.5236L58.8027 45.2677L67.8261 43.0118V33.3116L73.2437 37.9589C74.2969 38.8001 75.6493 38.6116 76.4473 37.7331C77.2597 36.7857 77.1695 35.387 76.2222 34.5298Z" fill="url(#paint0_linear_103_193)"/>
<path d="M38.5 33.9883C42.2318 33.9883 45.2676 30.9525 45.2676 27.2207C45.2676 23.4889 42.2318 20.4531 38.5 20.4531C34.7682 20.4531 31.7324 23.4889 31.7324 27.2207C31.7324 30.9525 34.7682 33.9883 38.5 33.9883ZM47.5234 43.0117H29.4766C28.2307 43.0117 27.2207 44.0217 27.2207 45.2676V74.5937H49.7793V61.0586H43.0117C41.7483 61.0586 40.7559 60.0659 40.7559 58.8027C40.7559 57.5393 41.7483 56.5469 43.0117 56.5469H49.7793V45.2676C49.7793 44.0217 48.7693 43.0117 47.5234 43.0117ZM20.4531 43.0117H9.17383V47.5234H20.4531C21.7166 47.5234 22.709 46.5307 22.709 45.2676C22.709 44.0043 21.7166 43.0117 20.4531 43.0117ZM20.4531 56.5469H9.17383V61.0586H20.4531C21.7166 61.0586 22.709 60.0659 22.709 58.8027C22.709 57.5394 21.7166 56.5469 20.4531 56.5469ZM56.5469 43.0117C55.2834 43.0117 54.291 44.0041 54.291 45.2676C54.291 46.5307 55.2834 47.5234 56.5469 47.5234H67.8262V43.0117H56.5469ZM54.291 58.8027C54.291 60.0659 55.2834 61.0586 56.5469 61.0586H67.8262V56.5469H56.5469C55.2834 56.5469 54.291 57.5394 54.291 58.8027Z" fill="url(#paint1_linear_103_193)"/>
<defs>
<linearGradient id="paint0_linear_103_193" x1="38.5" y1="74.594" x2="38.5" y2="2.40636" gradientUnits="userSpaceOnUse">
<stop stop-color="#078785"/>
<stop offset="1" stop-color="#4DDBD9"/>
</linearGradient>
<linearGradient id="paint1_linear_103_193" x1="38.5" y1="74.5939" x2="38.5" y2="20.4533" gradientUnits="userSpaceOnUse">
<stop stop-color="#ADDCFF"/>
<stop offset="0.5028" stop-color="#EAF6FF"/>
<stop offset="1" stop-color="#EAF6FF"/>
</linearGradient>
</defs>
</svg>
