<svg width="90" height="90" viewBox="0 0 90 90" fill="none" xmlns="http://www.w3.org/2000/svg">
<g clip-path="url(#clip0_104_216)">
<path d="M6.3408 9C4.39316 9 2.8252 10.568 2.8252 12.5156V34.1903C2.8252 36.1379 4.39316 37.7059 6.3408 37.7059H30.2333L33.9357 41.3808C35.4268 42.8719 37.8372 42.2402 37.8372 40.4895L37.7769 37.7059H45.3478C47.2955 37.7059 48.8635 36.1379 48.8635 34.1903V12.5156C48.8635 10.568 47.2955 9 45.3478 9H6.3408Z" fill="url(#paint0_linear_104_216)"/>
<path d="M32.7726 19.6634C32.0473 20.3887 31.6399 21.3723 31.6399 22.3979C31.6399 23.4236 32.0473 24.4072 32.7726 25.1325C33.1317 25.4916 33.558 25.7764 34.0272 25.9708C34.4964 26.1651 34.9992 26.2651 35.5071 26.2651C36.0149 26.2651 36.5178 26.1651 36.987 25.9708C37.4562 25.7764 37.8825 25.4916 38.2416 25.1325C38.9668 24.4072 39.3743 23.4236 39.3743 22.3979C39.3743 21.3723 38.9668 20.3887 38.2416 19.6634C37.8825 19.3043 37.4562 19.0195 36.987 18.8251C36.5178 18.6308 36.0149 18.5308 35.5071 18.5308C34.9992 18.5308 34.4964 18.6308 34.0272 18.8251C33.558 19.0195 33.1317 19.3043 32.7726 19.6634Z" fill="url(#paint1_linear_104_216)"/>
<path d="M20.6051 19.6634C19.8798 20.3887 19.4724 21.3723 19.4724 22.3979C19.4724 23.4236 19.8798 24.4072 20.6051 25.1325C20.9642 25.4916 21.3905 25.7764 21.8597 25.9708C22.3289 26.1651 22.8318 26.2651 23.3396 26.2651C23.8474 26.2651 24.3503 26.1651 24.8195 25.9708C25.2887 25.7764 25.715 25.4916 26.0741 25.1325C26.7994 24.4072 27.2068 23.4236 27.2068 22.3979C27.2068 21.3723 26.7994 20.3887 26.0741 19.6634C25.715 19.3043 25.2887 19.0195 24.8195 18.8251C24.3503 18.6308 23.8474 18.5308 23.3396 18.5308C22.8318 18.5308 22.3289 18.6308 21.8597 18.8251C21.3905 19.0195 20.9642 19.3043 20.6051 19.6634Z" fill="url(#paint2_linear_104_216)"/>
<path d="M8.4376 19.6634C7.71236 20.3887 7.30493 21.3723 7.30493 22.3979C7.30493 23.4236 7.71236 24.4072 8.4376 25.1325C8.7967 25.4916 9.22302 25.7764 9.69221 25.9708C10.1614 26.1651 10.6643 26.2651 11.1721 26.2651C11.68 26.2651 12.1828 26.1651 12.652 25.9708C13.1212 25.7764 13.5475 25.4916 13.9066 25.1325C14.6319 24.4072 15.0393 23.4236 15.0393 22.3979C15.0393 21.3723 14.6319 20.3887 13.9066 19.6634C13.5475 19.3043 13.1212 19.0195 12.652 18.8251C12.1828 18.6308 11.68 18.5308 11.1721 18.5308C10.6643 18.5308 10.1614 18.6308 9.69221 18.8251C9.22302 19.0195 8.7967 19.3043 8.4376 19.6634Z" fill="url(#paint3_linear_104_216)"/>
<path d="M43.5416 50.2393C43.5416 73.8444 24.6617 67.0528 21.5291 77.8184L19.345 87.5926C18.7258 90.9634 19.6492 93.3748 23.5714 93.3748H81.6196C85.5419 93.3748 87.7347 91.3702 87.0787 87.5926L84.8946 77.8184C82.0053 66.8906 62.0435 73.3579 62.0435 50.2393H43.5416Z" fill="url(#paint4_linear_104_216)"/>
<path d="M69.1852 38.645C69.1852 47.4667 62.0338 58.1857 53.2121 58.1857C44.3904 58.1857 37.239 47.4667 37.239 38.645C37.239 29.8233 44.3904 22.6719 53.2121 22.6719C62.0338 22.6719 69.1852 29.8233 69.1852 38.645Z" fill="url(#paint5_linear_104_216)"/>
<path d="M20.3877 86.3438V87.0441H21.7953V86.3438H20.3877ZM23.9061 86.3438V87.0441H25.3137V86.3438H23.9061ZM27.4203 86.3438V87.0441H28.828V86.3438H27.4203ZM30.9346 86.3438V87.0441H32.3422V86.3438H30.9346ZM34.453 86.3438V87.0441H35.8606V86.3438H34.453ZM37.9672 86.3438V87.0441H39.3748V86.3438H37.9672ZM41.4815 86.3438V87.0441H42.8891V86.3438H41.4815ZM44.9998 86.3438V87.0441H46.4075V86.3438H44.9998Z" fill="#035ED1" fill-opacity="0.86"/>
<path d="M59.502 86.3438V87.0441H60.9096V86.3438H59.502ZM63.0162 86.3438V87.0441H64.4238V86.3438H63.0162ZM66.5305 86.3438V87.0441H67.9381V86.3438H66.5305ZM70.0488 86.3438V87.0441H71.4564V86.3438H70.0488ZM73.5631 86.3438V87.0441H74.9707V86.3438H73.5631ZM77.0773 86.3438V87.0441H78.4849V86.3438H77.0773ZM80.5957 86.3438V87.0441H81.9992V86.3438H80.5957ZM84.1099 86.3438V87.0441H85.5176V86.3438H84.1099Z" fill="#035ED1" fill-opacity="0.86"/>
<path d="M53.2122 72.1721L49.9626 72.9449L46.4014 93.375H60.0231L56.4618 72.9449L53.2122 72.1721Z" fill="url(#paint6_linear_104_216)"/>
<path d="M56.4652 72.9601C56.1228 73.2094 53.6405 73.3145 53.2169 73.3149C52.7934 73.3153 50.3111 73.2148 49.9682 72.9664C49.6253 72.7177 48.8549 70.358 48.7236 69.9553C48.5924 69.5526 47.8241 67.1922 47.9546 66.7893C48.085 66.3863 50.0912 64.9244 50.4336 64.6751C50.776 64.4258 52.7835 62.9657 53.207 62.9653C53.6306 62.9649 55.6409 64.4211 55.9838 64.6697C56.3267 64.9184 58.3357 66.3764 58.4669 66.7791C58.5981 67.1818 57.8345 69.5437 57.704 69.9467C57.5736 70.3496 56.8076 72.7108 56.4652 72.9601Z" fill="url(#paint7_linear_104_216)"/>
</g>
<defs>
<linearGradient id="paint0_linear_104_216" x1="0.934676" y1="7.00007" x2="57.8949" y2="44.7903" gradientUnits="userSpaceOnUse">
<stop stop-color="#EAF2FF"/>
<stop offset="1" stop-color="#9BBAFF"/>
</linearGradient>
<linearGradient id="paint1_linear_104_216" x1="32.6994" y1="18.5308" x2="35.5071" y2="26.2651" gradientUnits="userSpaceOnUse">
<stop stop-color="#D95843"/>
<stop offset="1" stop-color="#AE4F3F"/>
</linearGradient>
<linearGradient id="paint2_linear_104_216" x1="20.5319" y1="18.5308" x2="23.3396" y2="26.2651" gradientUnits="userSpaceOnUse">
<stop stop-color="#D95843"/>
<stop offset="1" stop-color="#AE4F3F"/>
</linearGradient>
<linearGradient id="paint3_linear_104_216" x1="8.36443" y1="18.5308" x2="11.1721" y2="26.2651" gradientUnits="userSpaceOnUse">
<stop stop-color="#D95843"/>
<stop offset="1" stop-color="#AE4F3F"/>
</linearGradient>
<linearGradient id="paint4_linear_104_216" x1="57.0903" y1="92.1724" x2="57.0903" y2="43.1482" gradientUnits="userSpaceOnUse">
<stop stop-color="#00D2CF" stop-opacity="0.86"/>
<stop offset="1" stop-color="#0C8E8D" stop-opacity="0.86"/>
</linearGradient>
<linearGradient id="paint5_linear_104_216" x1="53.2324" y1="59.3412" x2="53.2324" y2="22.6735" gradientUnits="userSpaceOnUse">
<stop stop-color="#00D2CF" stop-opacity="0.86"/>
<stop offset="1" stop-color="#0C8E8D" stop-opacity="0.86"/>
</linearGradient>
<linearGradient id="paint6_linear_104_216" x1="53.2324" y1="93.4161" x2="53.2324" y2="74.3819" gradientUnits="userSpaceOnUse">
<stop stop-color="#F5F8FF"/>
<stop offset="1" stop-color="#A0C9FF"/>
</linearGradient>
<linearGradient id="paint7_linear_104_216" x1="53.2325" y1="76.945" x2="53.2325" y2="62.1469" gradientUnits="userSpaceOnUse">
<stop stop-color="#F5F8FF"/>
<stop offset="1" stop-color="#A0C9FF"/>
</linearGradient>
<clipPath id="clip0_104_216">
<rect width="90" height="90" fill="white"/>
</clipPath>
</defs>
</svg>
