<svg width="82" height="82" viewBox="0 0 82 82" fill="none" xmlns="http://www.w3.org/2000/svg">
<path d="M64.0625 2.5625H17.9375C13.6984 2.5625 10.25 6.01086 10.25 10.25V76.875C10.25 77.7108 10.6579 78.4941 11.3423 78.9745C12.0267 79.4525 12.9026 79.5726 13.6884 79.2823L41 69.3527L68.3116 79.2823C68.5969 79.3875 68.8922 79.4375 69.1875 79.4375C69.7055 79.4375 70.221 79.2798 70.6564 78.9745C71.3421 78.4941 71.75 77.7108 71.75 76.875V10.25C71.75 6.01086 68.3016 2.5625 64.0625 2.5625Z" fill="url(#paint0_linear_72_228)"/>
<path d="M33.3125 30.75C34.7277 30.75 35.875 29.6027 35.875 28.1875C35.875 26.7723 34.7277 25.625 33.3125 25.625C31.8973 25.625 30.75 26.7723 30.75 28.1875C30.75 29.6027 31.8973 30.75 33.3125 30.75Z" fill="url(#paint1_linear_72_228)"/>
<path d="M48.6875 46.125C50.1027 46.125 51.25 44.9777 51.25 43.5625C51.25 42.1473 50.1027 41 48.6875 41C47.2723 41 46.125 42.1473 46.125 43.5625C46.125 44.9777 47.2723 46.125 48.6875 46.125Z" fill="url(#paint2_linear_72_228)"/>
<path d="M33.3125 46.125C32.6569 46.125 32.0012 45.8748 31.5007 45.3743C30.4998 44.3733 30.4998 42.7517 31.5007 41.7507L46.8757 26.3757C47.8767 25.3748 49.4983 25.3748 50.4993 26.3757C51.5002 27.3767 51.5002 28.9983 50.4993 29.9993L35.1243 45.3743C34.6238 45.8748 33.9681 46.125 33.3125 46.125Z" fill="url(#paint3_linear_72_228)"/>
<defs>
<linearGradient id="paint0_linear_72_228" x1="10.25" y1="41" x2="71.75" y2="41" gradientUnits="userSpaceOnUse">
<stop stop-color="#00D2CF" stop-opacity="0.86"/>
<stop offset="1" stop-color="#0C8E8D" stop-opacity="0.86"/>
</linearGradient>
<linearGradient id="paint1_linear_72_228" x1="30.75" y1="28.1875" x2="35.875" y2="28.1875" gradientUnits="userSpaceOnUse">
<stop stop-color="#A5F5F4" stop-opacity="0.86"/>
<stop offset="1" stop-color="#0C8E8D" stop-opacity="0.86"/>
</linearGradient>
<linearGradient id="paint2_linear_72_228" x1="46.125" y1="43.5625" x2="51.25" y2="43.5625" gradientUnits="userSpaceOnUse">
<stop stop-color="#A5F5F4" stop-opacity="0.86"/>
<stop offset="1" stop-color="#0C8E8D" stop-opacity="0.86"/>
</linearGradient>
<linearGradient id="paint3_linear_72_228" x1="30.75" y1="35.875" x2="51.25" y2="35.875" gradientUnits="userSpaceOnUse">
<stop stop-color="#5EFFFD" stop-opacity="0.86"/>
<stop offset="1" stop-color="#078785" stop-opacity="0.86"/>
</linearGradient>
</defs>
</svg>
