<svg width="79" height="79" viewBox="0 0 79 79" fill="none" xmlns="http://www.w3.org/2000/svg">
<g clip-path="url(#clip0_104_231)">
<path d="M78.9803 7.18563C78.9304 6.64189 78.3392 6.26802 77.994 6.19689L47.1531 0.0250176C46.7498 -0.0559883 46.3326 0.0705352 46.0422 0.362002L0.353046 46.0425C0.13271 46.267 0.00649533 46.5673 1.48632e-05 46.8819V46.8979V54.3128C-0.000139434 54.8995 0.412759 55.4053 0.987515 55.5225L6.95448 56.7162L0.361687 63.3151C0.303363 63.3839 -0.00245389 63.7262 1.48632e-05 64.1878V71.5941C-0.000139434 72.1807 0.412759 72.6865 0.987515 72.8038L31.8469 78.9756C31.9281 78.9928 32.0108 79.0011 32.0938 79.0003C32.4212 79.0003 32.735 78.8701 32.9665 78.6387L78.6384 32.9668C78.8698 32.7353 79 32.4215 79 32.0941V24.6878C79.0002 24.1012 78.5873 23.5954 78.0125 23.4781L72.0456 22.2833L78.6433 15.6855C78.873 15.4533 79.0013 15.1395 79 14.8128V7.38436C78.9991 7.31771 78.9925 7.2512 78.9803 7.18563ZM31.6877 69.0204L28.6857 68.4193C29.4561 66.0547 30.5179 63.7953 31.8469 61.6932C31.9281 61.7108 32.0108 61.7194 32.0938 61.7191C32.2566 61.7189 32.4178 61.6862 32.5678 61.6228C32.7171 61.562 32.8528 61.4717 32.9665 61.3574L53.9422 40.3829C52.9306 43.0933 52.2514 45.9163 51.9191 48.7902L31.6877 69.0204ZM29.2633 61.1772C28.0046 63.3063 26.9938 65.5726 26.2502 67.9317L15.1211 65.7098C15.7756 63.3633 16.6084 61.0701 17.6121 58.8504L29.2633 61.1772ZM31.6877 51.7392L29.7682 51.3503C33.0276 36.5241 40.2769 22.8705 50.7328 11.8651L57.6046 4.63294L62.8297 5.67846L56.2073 11.9145C47.9791 19.644 42.9195 30.1572 42.012 41.4099L31.6877 51.7392ZM54.7396 4.06019L48.9381 10.1642C38.1626 21.5092 30.6961 35.586 27.3476 50.8702L15.5087 48.5026C23.4906 34.4324 33.3306 21.501 44.7634 10.0568L51.4229 3.39733L54.7396 4.06019ZM57.8996 13.7118L65.7996 6.27342L75.2574 8.16449L44.8313 38.5955C46.2778 29.0716 50.8797 20.3089 57.8996 13.7118ZM47.3124 2.574L48.5171 2.82088L43.0217 8.31138C31.2348 20.1037 21.118 33.4544 12.9535 47.9916L3.7377 46.1487L47.3124 2.574ZM2.46877 48.4125L30.8594 54.0906V58.9788L2.46877 53.3006V48.4125ZM15.131 58.3505C14.1548 60.5791 13.3405 62.8752 12.6943 65.221L3.7377 63.4299L9.87502 57.2988L15.131 58.3505ZM2.46877 65.6938L30.8594 71.3719V76.26L2.46877 70.5819V65.6938ZM76.5313 31.583L33.3281 74.7862V70.8707L76.5313 27.6676V31.583ZM75.2623 25.4457L54.9297 45.7747C55.9368 40.4517 58.5799 35.5756 62.4903 31.8262L69.9385 24.378L75.2623 25.4457ZM76.5313 14.3018L33.3281 57.5049V53.5895L76.5313 10.3864V14.3018Z" fill="url(#paint0_linear_104_231)"/>
</g>
<defs>
<linearGradient id="paint0_linear_104_231" x1="40.2572" y1="-3.60404" x2="38.7923" y2="79.7774" gradientUnits="userSpaceOnUse">
<stop stop-color="#38D6A4"/>
<stop offset="0.171" stop-color="#32CAAE"/>
<stop offset="0.478" stop-color="#078785"/>
<stop offset="0.884" stop-color="#078785"/>
<stop offset="0.999" stop-color="#078785"/>
</linearGradient>
<clipPath id="clip0_104_231">
<rect width="79" height="79" fill="white"/>
</clipPath>
</defs>
</svg>
