<svg width="80" height="80" viewBox="0 0 80 80" fill="none" xmlns="http://www.w3.org/2000/svg">
<path d="M63.4375 4.6875H54.0625C52.767 4.6875 51.7188 5.73578 51.7188 7.03125V9.375H28.2812V7.03125C28.2812 5.73578 27.233 4.6875 25.9375 4.6875H16.5625C12.6853 4.6875 9.53125 7.84156 9.53125 11.7188V72.9688C9.53125 76.8459 12.6853 80 16.5625 80H63.4375C67.3147 80 70.4688 76.8459 70.4688 72.9688V11.7188C70.4688 7.84156 67.3147 4.6875 63.4375 4.6875Z" fill="url(#paint0_linear_104_236)"/>
<path d="M25.9375 14.0625H54.0625C55.358 14.0625 56.4062 13.0142 56.4062 11.7188V7.03125C56.4062 3.15406 53.2522 0 49.375 0H30.625C26.7478 0 23.5938 3.15406 23.5938 7.03125V11.7188C23.5938 13.0142 24.642 14.0625 25.9375 14.0625ZM54.0625 56.5625H49.375C46.3234 56.5625 43.7463 58.5278 42.7755 61.25H37.2245C36.2537 58.5278 33.6766 56.5625 30.625 56.5625H25.9375C22.0603 56.5625 18.9062 59.7166 18.9062 63.5938C18.9062 67.4709 22.0603 70.625 25.9375 70.625H30.625C33.6766 70.625 36.2537 68.6597 37.2245 65.9375H42.7755C43.7463 68.6597 46.3234 70.625 49.375 70.625H54.0625C57.9397 70.625 61.0938 67.4709 61.0938 63.5938C61.0938 59.7166 57.9397 56.5625 54.0625 56.5625ZM30.625 65.9375H25.9375C24.6466 65.9375 23.5938 64.8869 23.5938 63.5938C23.5938 62.3006 24.6466 61.25 25.9375 61.25H30.625C31.9159 61.25 32.9688 62.3006 32.9688 63.5938C32.9688 64.8869 31.9159 65.9375 30.625 65.9375ZM54.0625 65.9375H49.375C48.0841 65.9375 47.0312 64.8869 47.0312 63.5938C47.0312 62.3006 48.0841 61.25 49.375 61.25H54.0625C55.3534 61.25 56.4062 62.3006 56.4062 63.5938C56.4062 64.8869 55.3534 65.9375 54.0625 65.9375ZM21.25 37.8125H58.75C60.0455 37.8125 61.0938 36.7642 61.0938 35.4688C61.0938 34.1733 60.0455 33.125 58.75 33.125H21.25C19.9545 33.125 18.9062 34.1733 18.9062 35.4688C18.9062 36.7642 19.9545 37.8125 21.25 37.8125ZM21.25 28.4375H30.625C31.9205 28.4375 32.9688 27.3892 32.9688 26.0938C32.9688 24.7983 31.9205 23.75 30.625 23.75H21.25C19.9545 23.75 18.9062 24.7983 18.9062 26.0938C18.9062 27.3892 19.9545 28.4375 21.25 28.4375ZM58.75 42.5H21.25C19.9545 42.5 18.9062 43.5483 18.9062 44.8438C18.9062 46.1392 19.9545 47.1875 21.25 47.1875H58.75C60.0455 47.1875 61.0938 46.1392 61.0938 44.8438C61.0938 43.5483 60.0455 42.5 58.75 42.5Z" fill="url(#paint1_linear_104_236)"/>
<defs>
<linearGradient id="paint0_linear_104_236" x1="40" y1="80" x2="40" y2="4.6875" gradientUnits="userSpaceOnUse">
<stop stop-color="#0C8E8D"/>
<stop offset="1" stop-color="#00D2CF"/>
</linearGradient>
<linearGradient id="paint1_linear_104_236" x1="40" y1="70.625" x2="40" y2="23.5417" gradientUnits="userSpaceOnUse">
<stop stop-color="white"/>
<stop offset="1" stop-color="white"/>
</linearGradient>
</defs>
</svg>
