<svg width="73" height="73" viewBox="0 0 73 73" fill="none" xmlns="http://www.w3.org/2000/svg">
<path d="M55.666 30.9296L52.6129 30.4215C52.3688 29.6999 52.0754 28.9947 51.7375 28.3106L53.5375 25.7925C54.2204 24.8361 54.1125 23.5278 53.2817 22.6959L49.4001 18.8107C48.567 17.9788 47.2551 17.8708 46.3047 18.5538L43.7842 20.3549C43.0989 20.017 42.3949 19.7248 41.6721 19.4796L41.1628 16.4264C40.9704 15.2682 39.9683 14.4187 38.7926 14.4187H33.301C32.1253 14.4187 31.1232 15.2682 30.9308 16.4264L30.4215 19.4796C29.7011 19.7248 28.997 20.017 28.3118 20.3549L25.7913 18.5549C24.8361 17.8708 23.5266 17.9764 22.6959 18.8119L18.8119 22.6959C17.9811 23.5266 17.8732 24.8361 18.5561 25.7925L20.3561 28.3118C20.0182 28.9958 19.7248 29.6999 19.4807 30.4215L16.4276 30.9296C15.2682 31.122 14.4187 32.1253 14.4187 33.2999V38.7937C14.4187 39.9683 15.2682 40.9716 16.4276 41.164L19.4807 41.6721C19.7248 42.3937 20.0182 43.0978 20.3561 43.7819L18.5561 46.3011C17.8732 47.2575 17.9811 48.567 18.8119 49.3977L22.6959 53.2829C23.5266 54.1148 24.8361 54.2204 25.7913 53.5398L28.3118 51.7387C28.997 52.0766 29.7011 52.3688 30.4215 52.614L30.9308 55.6672C31.1232 56.8254 32.1253 57.6749 33.301 57.6749H38.7926C39.9683 57.6749 40.9704 56.8254 41.1628 55.6672L41.6721 52.614C42.3949 52.3688 43.0989 52.0766 43.7819 51.7387L46.3023 53.5375C47.2551 54.2228 48.567 54.116 49.3977 53.2829L53.284 49.4001C54.1148 48.5693 54.2228 47.2586 53.5398 46.3023L51.7375 43.783C52.0754 43.0989 52.3688 42.3937 52.6129 41.6721L55.666 41.164C56.8254 40.9716 57.6749 39.9683 57.6749 38.7937V33.2999C57.6749 32.1253 56.8254 31.122 55.666 30.9296ZM36.0468 43.2562C32.0713 43.2562 28.8374 40.0223 28.8374 36.0468C28.8374 32.0713 32.0713 28.8374 36.0468 28.8374C40.0223 28.8374 43.2562 32.0713 43.2562 36.0468C43.2562 40.0223 40.0223 43.2562 36.0468 43.2562Z" fill="url(#paint0_linear_72_242)"/>
<path d="M21.1844 8.55526C25.7207 6.10285 30.8602 4.80624 36.0467 4.80624C41.9676 4.80624 47.7009 6.49711 52.6503 9.61601H48.4213C47.093 9.61601 46.0182 10.692 46.0182 12.0191C46.0182 13.3462 47.093 14.4223 48.4213 14.4223H58.5173C59.8456 14.4223 60.9204 13.3462 60.9204 12.0191V2.40312C60.9204 1.07601 59.8456 0 58.5173 0C57.189 0 56.1141 1.07601 56.1141 2.40312V6.16269C50.2025 2.1837 43.2466 0 36.0467 0C30.067 0 24.1366 1.49608 18.8986 4.32632C17.7322 4.95761 17.2957 6.41615 17.927 7.58368C18.556 8.74887 20.0133 9.18537 21.1844 8.55526Z" fill="url(#paint1_linear_72_242)"/>
<path d="M14.4234 23.6721V13.5762C14.4234 12.2491 13.3486 11.1731 12.0203 11.1731H2.40312C1.07483 11.1731 0 12.2491 0 13.5762C0 14.9033 1.07483 15.9793 2.40312 15.9793H6.16504C2.18252 21.8909 0 28.8457 0 36.0468C0 42.0265 1.49726 47.9557 4.3275 53.1949C4.76166 53.9987 5.59008 54.4551 6.44431 54.4551C6.82919 54.4551 7.2211 54.3624 7.58486 54.1665C8.75121 53.5352 9.18772 52.0766 8.55643 50.9091C6.10402 46.3704 4.80624 41.2309 4.80624 36.0468C4.80624 30.1258 6.49829 24.3903 9.61718 19.442V23.6721C9.61718 24.9993 10.692 26.0753 12.0203 26.0753C13.3486 26.0753 14.4234 24.9993 14.4234 23.6721Z" fill="url(#paint2_linear_72_242)"/>
<path d="M50.9093 63.5372C46.3706 65.9907 41.2311 67.2873 36.0471 67.2873C30.1284 67.2873 24.3929 65.5953 19.4458 62.4764H23.6724C25.0007 62.4764 26.0755 61.4004 26.0755 60.0733C26.0755 58.7462 25.0007 57.6702 23.6724 57.6702H13.5765C12.2482 57.6702 11.1733 58.7462 11.1733 60.0733V69.6905C11.1733 71.0176 12.2482 72.0936 13.5765 72.0936C14.9048 72.0936 15.9796 71.0176 15.9796 69.6905V65.9309C21.8912 69.9111 28.8471 72.0936 36.0471 72.0936C42.0267 72.0936 47.9547 70.5975 53.1951 67.7661C54.3615 67.1348 54.798 65.6763 54.1667 64.5087C53.5378 63.3436 52.0804 62.9059 50.9093 63.5372Z" fill="url(#paint3_linear_72_242)"/>
<path d="M69.6907 56.1146H65.9288C69.9113 50.203 72.0938 43.2483 72.0938 36.0471C72.0938 30.0675 70.5966 24.1383 67.7663 18.8991C67.1374 17.7327 65.68 17.2974 64.509 17.9275C63.3426 18.5588 62.9061 20.0173 63.5374 21.1848C65.9898 25.7235 67.2876 30.863 67.2876 36.0471C67.2876 41.9681 65.5956 47.7037 62.4767 52.6519V48.4218C62.4767 47.0947 61.4018 46.0187 60.0735 46.0187C58.7452 46.0187 57.6704 47.0947 57.6704 48.4218V58.5177C57.6704 59.8448 58.7452 60.9208 60.0735 60.9208H69.6907C71.019 60.9208 72.0938 59.8448 72.0938 58.5177C72.0938 57.1906 71.019 56.1146 69.6907 56.1146Z" fill="url(#paint4_linear_72_242)"/>
<defs>
<linearGradient id="paint0_linear_72_242" x1="14.4187" y1="36.0468" x2="57.6749" y2="36.0468" gradientUnits="userSpaceOnUse">
<stop stop-color="#00D2CF" stop-opacity="0.86"/>
<stop offset="1" stop-color="#0C8E8D" stop-opacity="0.86"/>
</linearGradient>
<linearGradient id="paint1_linear_72_242" x1="17.6387" y1="7.21177" x2="60.9214" y2="7.21177" gradientUnits="userSpaceOnUse">
<stop stop-color="#78F3F2" stop-opacity="0.86"/>
<stop offset="1" stop-color="#0C8E8D" stop-opacity="0.86"/>
</linearGradient>
<linearGradient id="paint2_linear_72_242" x1="0" y1="32.8146" x2="14.4235" y2="32.8146" gradientUnits="userSpaceOnUse">
<stop stop-color="#0C8E8D" stop-opacity="0.86"/>
<stop offset="1" stop-color="#00D2CF" stop-opacity="0.86"/>
</linearGradient>
<linearGradient id="paint3_linear_72_242" x1="11.1723" y1="64.8818" x2="54.455" y2="64.8818" gradientUnits="userSpaceOnUse">
<stop stop-color="#1EECE9" stop-opacity="0.86"/>
<stop offset="1" stop-color="#1ABCBA" stop-opacity="0.86"/>
</linearGradient>
<linearGradient id="paint4_linear_72_242" x1="57.6703" y1="39.2793" x2="72.0938" y2="39.2793" gradientUnits="userSpaceOnUse">
<stop stop-color="#00D2CF" stop-opacity="0.86"/>
<stop offset="1" stop-color="#0C8E8D" stop-opacity="0.86"/>
</linearGradient>
</defs>
</svg>
