<svg width="25" height="25" viewBox="0 0 25 25" fill="none" xmlns="http://www.w3.org/2000/svg">
<path d="M12.4479 24.1015C18.6727 24.1015 23.7189 19.0553 23.7189 12.8305C23.7189 6.60575 18.6727 1.55957 12.4479 1.55957C6.22318 1.55957 1.177 6.60575 1.177 12.8305C1.177 19.0553 6.22318 24.1015 12.4479 24.1015Z" fill="url(#paint0_linear_72_105)"/>
<path fill-rule="evenodd" clip-rule="evenodd" d="M9.15064 5.39089C9.91024 5.39938 10.6531 5.61494 11.2993 6.01435C16.3314 5.16981 20.6194 9.56682 19.5308 14.4093C20.8935 17.0862 18.9081 20.2668 15.8066 20.2707C15.1222 20.2713 14.4478 20.1065 13.8408 19.7903C8.80873 20.6891 4.48939 16.3579 5.49971 11.5038C5.12517 10.8845 4.92743 10.1744 4.92798 9.45059C4.92798 7.03611 6.97434 5.36691 9.15064 5.39088L9.15064 5.39089ZM12.0424 7.99445C10.799 8.06565 9.59586 8.47822 8.98495 9.2569C8.28399 10.1479 8.38973 11.376 8.96146 12.0733C10.5161 13.9754 14.4282 13.1503 14.4282 14.8936C14.4282 15.7614 13.3395 16.1333 12.4545 16.1333C10.4495 16.1333 10.661 14.7541 9.97961 14.1846C9.16117 13.5106 7.49295 14.3938 8.75783 16.1643C9.60369 17.3652 11.0369 17.7139 12.5054 17.7139C14.671 17.7139 16.7034 16.7725 16.7073 14.6921C16.7073 11.7324 12.7404 11.9648 11.2249 11.221C10.0853 10.667 10.7237 9.5281 12.341 9.5281C14.5731 9.5281 13.8486 11.3179 15.231 11.3179C16.3823 11.3179 16.766 9.87287 15.3406 8.78041C14.5692 8.19349 13.2857 7.92328 12.0424 7.99447V7.99445Z" fill="white"/>
<path style="mix-blend-mode:multiply" d="M22.8123 8.39551C22.8969 8.95341 22.9393 9.51688 22.9393 10.0811C22.9393 16.4018 17.6847 21.5256 11.2027 21.5256C7.53149 21.5256 4.25445 19.8816 2.10229 17.3078C3.8345 21.3049 7.8144 24.1014 12.4481 24.1014C18.6728 24.1014 23.719 19.0553 23.719 12.8305C23.7208 11.306 23.4124 9.797 22.8123 8.39551Z" fill="url(#paint1_radial_72_105)"/>
<path d="M1.90566 11.1085C2.97792 13.8551 7.58052 14.6241 12.1858 12.8261C16.7911 11.0282 19.927 7.22188 18.5829 4.59757C17.7888 3.04709 15.1935 1.65251 12.1315 1.56445H12.1148C7.18642 1.70751 3.05217 5.01484 1.67057 9.5253C1.635 10.0638 1.71516 10.6036 1.90566 11.1085Z" fill="url(#paint2_radial_72_105)"/>
<defs>
<linearGradient id="paint0_linear_72_105" x1="1.17705" y1="12.8305" x2="23.7189" y2="12.8305" gradientUnits="userSpaceOnUse">
<stop stop-color="#03A9F4"/>
<stop offset="0.1673" stop-color="#089FE9"/>
<stop offset="0.4658" stop-color="#1485CA"/>
<stop offset="0.8583" stop-color="#275C99"/>
<stop offset="1" stop-color="#2F4B85"/>
</linearGradient>
<radialGradient id="paint1_radial_72_105" cx="0" cy="0" r="1" gradientUnits="userSpaceOnUse" gradientTransform="translate(12.9187 16.245) rotate(-40.0917) scale(13.2094 10.0213)">
<stop/>
<stop offset="1" stop-color="white" stop-opacity="0"/>
</radialGradient>
<radialGradient id="paint2_radial_72_105" cx="0" cy="0" r="1" gradientUnits="userSpaceOnUse" gradientTransform="translate(10.2803 7.68101) scale(10.7122)">
<stop stop-color="white"/>
<stop offset="0.0736" stop-color="white" stop-opacity="0.824"/>
<stop offset="0.1652" stop-color="white" stop-opacity="0.633"/>
<stop offset="0.262" stop-color="white" stop-opacity="0.463"/>
<stop offset="0.362" stop-color="white" stop-opacity="0.32"/>
<stop offset="0.4663" stop-color="white" stop-opacity="0.203"/>
<stop offset="0.5761" stop-color="white" stop-opacity="0.113"/>
<stop offset="0.6941" stop-color="white" stop-opacity="0.05"/>
<stop offset="0.8259" stop-color="white" stop-opacity="0.012"/>
<stop offset="1" stop-color="white" stop-opacity="0"/>
</radialGradient>
</defs>
</svg>
