<svg width="25" height="25" viewBox="0 0 25 25" fill="none" xmlns="http://www.w3.org/2000/svg">
<path d="M14.638 1.80908H10.3617C6.21699 1.80908 2.87817 5.1479 2.87817 9.29264V12.4999C2.87817 15.3946 4.53936 18.0262 7.15449 19.2597V22.8453C7.15449 23.0262 7.31896 23.1907 7.53278 23.1907C7.61502 23.1907 7.7137 23.1578 7.77949 23.092L10.8716 19.9834H14.638C18.7828 19.9834 22.1216 16.6446 22.1216 12.4999V9.29264C22.1216 5.1479 18.7828 1.80908 14.638 1.80908ZM17.4505 15.8387L16.3815 16.9078C15.2301 18.0262 12.2696 16.7433 9.65449 14.0788C7.03936 11.4143 5.87159 8.40448 6.97357 7.28606L8.04265 6.21698C8.47028 5.82224 9.14462 5.83869 9.57225 6.24987L11.1183 7.86172C11.513 8.28935 11.513 8.9308 11.0854 9.35843C10.9703 9.47356 10.8387 9.53935 10.6907 9.60514C10.1479 9.76961 9.8683 10.2959 9.99988 10.8387C10.263 12.0229 11.7598 13.5032 12.8946 13.7992C13.4209 13.9308 13.9637 13.6347 14.1446 13.1249C14.3255 12.5986 14.9176 12.3025 15.4769 12.4834C15.6413 12.5328 15.7729 12.6479 15.9045 12.7466L17.4505 14.3584C17.8453 14.7532 17.8453 15.4111 17.4505 15.8387ZM13.4538 6.89132C13.3387 6.89132 13.24 6.89132 13.1413 6.92422C12.9604 6.95711 12.763 6.80908 12.7466 6.59527C12.7301 6.38145 12.8617 6.21698 13.0591 6.20053C13.1907 6.16764 13.3223 6.16764 13.4538 6.16764C15.4275 6.16764 17.0065 7.77948 17.0394 9.72027C17.0394 9.85185 17.0394 9.98343 17.0065 10.115C16.9736 10.2959 16.8255 10.4604 16.6117 10.4275C16.3979 10.3946 16.2663 10.2466 16.2992 10.0328C16.2992 9.91764 16.3321 9.81895 16.3321 9.72027C16.3157 8.17422 15.0328 6.89132 13.4538 6.89132ZM15.592 9.75316C15.5591 9.93409 15.4111 10.0986 15.1973 10.0657C15.0328 10.0328 14.8848 9.90119 14.8848 9.75316C14.8848 8.98014 14.2433 8.33869 13.4703 8.33869C13.2894 8.37158 13.092 8.20711 13.0755 8.00974C13.0426 7.82882 13.2071 7.63145 13.388 7.61501H13.4374C14.6709 7.61501 15.592 8.56895 15.592 9.75316ZM18.3223 10.888C18.2894 11.069 18.1084 11.2005 17.9275 11.1841C17.7466 11.1676 17.615 10.9703 17.6315 10.7893C17.6315 10.7565 17.6315 10.7565 17.6315 10.74C17.7137 10.4275 17.7466 10.0986 17.7466 9.75316C17.7466 7.40119 15.8223 5.47685 13.4703 5.47685C13.3551 5.47685 13.2565 5.47685 13.1578 5.47685C12.9769 5.50974 12.7795 5.34527 12.7795 5.1479C12.7466 4.96698 12.9111 4.76961 13.092 4.76961C13.2236 4.76961 13.3551 4.73671 13.4703 4.73671C16.217 4.73671 18.4703 6.97356 18.4703 9.73672C18.4538 10.115 18.4045 10.5262 18.3223 10.888Z" fill="url(#paint0_linear_72_123)"/>
<defs>
<linearGradient id="paint0_linear_72_123" x1="4.55942" y1="4.50431" x2="18.8918" y2="18.8367" gradientUnits="userSpaceOnUse">
<stop stop-color="#7E57C2"/>
<stop offset="1" stop-color="#4527A0"/>
</linearGradient>
</defs>
</svg>
